<?xml version="1.0" standalone="no"?>
<!DOCTYPE svg PUBLIC "-//W3C//DTD SVG 20010904//EN"
 "http://www.w3.org/TR/2001/REC-SVG-20010904/DTD/svg10.dtd">
<svg version="1.0" xmlns="http://www.w3.org/2000/svg"
 width="1200.000000pt" height="1200.000000pt" viewBox="0 0 1200.000000 1200.000000"
 preserveAspectRatio="xMidYMid meet">
<metadata>
Created by potrace 1.11, written by Peter Selinger 2001-2013
</metadata>
<g transform="translate(0.000000,1200.000000) scale(0.100000,-0.100000)"
fill="#000000" stroke="none">
<path d="M5782 11384 c-101 -16 -262 -65 -357 -110 -308 -144 -558 -410 -684
-726 -64 -161 -99 -355 -94 -523 1 -76 4 -106 18 -200 5 -35 3 -41 -17 -51
-13 -6 -117 -66 -233 -134 -115 -67 -230 -134 -255 -148 -25 -14 -108 -62
-185 -107 -174 -102 -457 -266 -508 -294 -21 -12 -49 -28 -62 -37 -22 -14 -25
-13 -57 13 -182 156 -465 277 -703 301 -580 57 -1118 -238 -1364 -749 -79
-163 -95 -215 -126 -404 -8 -49 -12 -134 -10 -220 3 -131 6 -161 21 -225 3
-14 8 -34 10 -45 11 -60 58 -195 94 -272 141 -301 403 -550 707 -674 l83 -33
0 -150 c1 -178 1 -1218 0 -1292 l0 -51 -82 -33 c-388 -155 -692 -508 -797
-925 -29 -116 -36 -178 -35 -335 1 -279 79 -528 236 -758 69 -100 243 -274
335 -335 250 -165 489 -239 778 -240 108 0 179 7 275 28 14 4 36 8 50 11 139
28 378 146 506 250 23 19 46 34 52 34 6 0 122 -64 259 -143 137 -79 255 -146
263 -150 8 -4 30 -16 49 -28 40 -24 287 -166 346 -199 22 -12 65 -37 95 -55
30 -18 78 -45 105 -60 138 -76 185 -108 181 -124 -17 -60 -26 -274 -14 -366
19 -155 20 -160 48 -254 127 -427 448 -760 866 -900 49 -17 103 -32 119 -35
17 -3 41 -8 55 -11 67 -15 95 -17 230 -20 132 -3 167 0 280 20 190 33 398 126
563 252 155 117 322 322 401 494 38 83 91 236 100 289 3 19 8 46 10 59 22 104
25 319 6 420 -6 35 -8 67 -3 72 7 6 84 51 288 169 17 9 107 61 200 115 261
150 404 233 590 340 94 53 174 101 180 106 17 17 39 9 94 -34 240 -187 539
-287 841 -281 83 2 160 8 210 18 303 61 519 175 725 381 140 140 226 269 310
467 21 51 72 261 80 330 7 72 8 250 0 303 -25 182 -62 303 -140 460 -149 299
-392 517 -727 651 l-47 19 0 747 0 748 27 7 c15 3 43 14 62 24 19 9 53 25 75
35 111 50 260 158 366 266 182 184 305 415 361 678 28 132 30 434 4 511 -3 8
-7 31 -10 52 -16 107 -107 321 -194 452 -299 452 -861 683 -1396 574 -196 -40
-444 -159 -584 -280 l-32 -29 -33 19 c-17 10 -108 62 -202 116 -93 54 -183
106 -200 115 -16 10 -57 33 -90 52 -33 20 -80 47 -105 60 -25 14 -112 65 -195
113 -82 48 -172 99 -200 115 -200 110 -270 156 -268 175 1 11 5 54 9 95 32
310 -34 600 -196 868 -119 196 -350 401 -566 503 -83 38 -247 93 -319 105 -22
4 -49 9 -60 11 -53 13 -326 10 -413 -3z m326 -668 c134 -20 263 -87 373 -197
124 -123 192 -285 192 -459 1 -203 -58 -346 -202 -491 -62 -62 -94 -85 -171
-122 -96 -47 -112 -52 -209 -66 -147 -22 -306 12 -447 94 -64 38 -182 157
-222 227 -114 194 -126 435 -31 635 129 272 413 422 717 379z m-948 -1721
c127 -101 294 -190 437 -232 50 -14 63 -22 64 -38 0 -20 0 -1145 -1 -1326 l0
-96 -62 -18 c-35 -11 -92 -32 -128 -49 -36 -16 -68 -30 -71 -30 -18 -3 -189
-115 -253 -166 -169 -136 -332 -360 -401 -550 -32 -89 -64 -200 -71 -247 -3
-26 -9 -57 -11 -68 -9 -42 -11 -273 -2 -330 5 -33 12 -76 14 -95 3 -19 10 -53
16 -74 8 -30 8 -41 -3 -48 -11 -7 -260 -151 -342 -198 -17 -9 -170 -97 -341
-195 -307 -176 -342 -196 -420 -240 -22 -13 -60 -34 -84 -48 l-44 -26 -66 61
c-160 146 -435 286 -616 313 l-45 7 0 698 0 698 43 7 c62 11 242 72 311 107
472 239 755 694 756 1218 0 145 -27 316 -69 422 -13 33 -49 8 309 213 151 87
286 165 300 174 14 8 35 21 48 28 38 20 496 285 517 298 18 12 26 7 85 -52 35
-36 94 -89 130 -118z m2303 -61 c232 -136 442 -258 467 -272 25 -14 101 -58
168 -99 68 -40 128 -73 133 -73 4 0 2 -19 -7 -41 -8 -23 -16 -51 -18 -63 -2
-12 -9 -39 -14 -61 -38 -139 -45 -361 -17 -520 37 -214 141 -456 257 -600 147
-183 282 -292 478 -390 96 -48 242 -100 313 -110 l47 -7 0 -698 0 -697 -42 -7
c-66 -11 -238 -71 -320 -112 -102 -51 -221 -131 -298 -201 -69 -63 -72 -64
-130 -28 -19 12 -55 33 -80 47 -25 14 -166 96 -315 183 -148 86 -288 167 -310
180 -256 144 -470 275 -468 286 1 8 4 23 6 34 5 22 17 86 24 125 9 52 11 307
3 360 -27 174 -63 293 -130 429 -170 346 -491 611 -857 707 -10 3 -13 156 -13
723 l0 720 53 15 c202 59 419 190 564 342 37 39 72 72 76 73 5 0 199 -110 430
-245z m-4794 -254 c154 -38 314 -159 403 -305 157 -259 117 -603 -96 -819
-211 -215 -531 -264 -800 -122 -228 120 -361 351 -352 611 5 143 22 204 82
313 105 187 313 323 519 339 39 3 71 6 73 8 4 3 126 -14 171 -25z m6977 7
c149 -38 235 -86 340 -192 91 -91 148 -193 179 -318 52 -216 -14 -452 -174
-616 -134 -138 -274 -201 -461 -207 -145 -4 -236 18 -362 89 -208 117 -344
362 -333 602 2 44 6 91 9 105 3 14 9 39 12 55 9 44 57 146 94 202 84 124 240
233 392 272 70 18 245 23 304 8z m-3502 -2027 c169 -38 322 -143 417 -288 59
-90 88 -164 104 -267 29 -193 -19 -373 -140 -527 -176 -224 -496 -311 -764
-208 -136 53 -242 138 -322 258 -176 266 -145 609 74 841 76 79 221 163 324
187 91 21 224 23 307 4z m-979 -1716 c348 -277 833 -361 1261 -219 174 59 359
169 490 292 l42 39 223 -129 c123 -70 261 -151 307 -178 45 -27 84 -49 86 -49
3 0 75 -42 156 -90 54 -32 179 -105 204 -120 17 -9 57 -32 90 -51 32 -19 81
-47 110 -62 68 -38 66 -36 55 -87 -25 -109 -31 -161 -34 -288 -2 -130 15 -261
50 -385 14 -48 25 -92 25 -96 0 -5 -57 -42 -127 -82 -71 -41 -135 -78 -145
-84 -9 -5 -45 -26 -80 -46 -105 -60 -121 -70 -448 -260 -173 -100 -333 -193
-354 -205 l-39 -23 -71 73 c-149 151 -286 241 -496 321 -148 58 -272 79 -455
80 -208 0 -296 -14 -470 -75 -109 -39 -187 -77 -280 -138 -87 -57 -119 -84
-220 -182 l-80 -79 -602 347 c-455 262 -601 351 -597 362 21 53 63 248 69 315
7 82 7 213 1 256 -3 13 -7 49 -11 80 -3 31 -12 79 -19 106 l-13 50 621 360
621 360 40 -37 c22 -20 63 -54 90 -76z m-2530 -309 c260 -61 459 -259 516
-513 93 -415 -231 -819 -658 -820 -60 0 -88 3 -193 24 -82 17 -240 118 -314
202 -298 338 -187 872 220 1059 133 61 295 79 429 48z m7080 -19 c282 -96 465
-347 466 -641 0 -38 -3 -81 -6 -95 -3 -14 -8 -41 -11 -60 -12 -74 -79 -207
-139 -279 -73 -87 -198 -171 -308 -207 -65 -21 -105 -28 -192 -30 -119 -3
-165 5 -265 44 -199 78 -342 236 -406 448 -18 62 -25 237 -12 304 52 257 231
449 488 526 109 32 272 28 385 -10z m-3605 -2001 c68 -11 71 -12 120 -30 120
-43 251 -143 319 -244 123 -181 153 -364 98 -589 -22 -87 -117 -234 -197 -304
-90 -79 -219 -143 -330 -163 -163 -30 -376 17 -510 113 -121 87 -230 247 -266
391 -16 65 -23 213 -11 266 3 17 9 42 12 58 37 178 191 365 368 447 130 60
262 78 397 55z"/>
</g>
</svg>
